<svg width="146" height="35" viewBox="0 0 146 35" fill="none" xmlns="http://www.w3.org/2000/svg">
<path d="M56.8897 22.9454C53.6808 22.9454 51.0796 20.2869 51.0796 17.0068C51.0796 13.727 53.6808 11.0681 56.8901 11.0681C60.0991 11.0681 62.6999 13.727 62.6999 17.0068C62.6999 20.2869 60.0987 22.9454 56.8897 22.9454ZM62.7185 23.6986C62.7185 24.2426 63.6505 25.7702 64.7924 25.7702H65.5319C65.8187 25.7702 66.053 25.5355 66.053 25.2491V8.99684H66.0503C66.0432 8.86402 65.9855 8.73897 65.8891 8.64732C65.7927 8.55566 65.6649 8.50434 65.5319 8.50385H63.2404C62.9631 8.50385 62.7367 8.72334 62.7212 8.99684H62.7185V10.3176C61.3148 8.5883 59.101 7.8705 56.881 7.8705C51.8351 7.8705 47.7451 11.9609 47.7451 17.0071C47.7451 22.0534 51.8351 26.1438 56.881 26.1438C59.101 26.1438 61.5203 25.2826 62.7185 23.6967V23.6994V23.6986ZM71.5284 21.3714C73.0579 22.4308 74.7278 22.9454 76.3323 22.9454C77.8615 22.9454 79.4413 22.1527 79.4413 20.7734C79.4413 18.9323 75.9976 18.6455 73.8343 17.9102C71.6699 17.1749 69.806 15.6545 69.806 13.1926C69.806 9.42592 73.1625 7.87012 76.2954 7.87012C78.2803 7.87012 80.328 8.52439 81.6559 9.46244C82.1135 9.80859 81.8347 10.2069 81.8347 10.2069L80.5672 12.0168C80.425 12.2207 80.1298 12.3835 79.8183 12.1762C78.9643 11.6117 78.0133 11.0677 76.2951 11.0677C74.1683 11.0677 73.2329 11.9506 73.2329 13.0446C73.2329 14.3569 74.729 14.7693 76.4815 15.2166C79.536 16.0394 82.8682 17.0296 82.8682 20.7738C82.8682 24.0927 79.7635 26.1438 76.3323 26.1438C73.7324 26.1438 71.5185 25.4024 69.6618 24.0402C69.2753 23.653 69.5454 23.2935 69.5454 23.2935L70.8064 21.4927C71.0632 21.1557 71.3865 21.2736 71.5284 21.3714ZM100.054 23.699C100.054 24.2426 100.986 25.7702 102.127 25.7702H102.867C103.154 25.7702 103.388 25.5355 103.388 25.2491V8.99684H103.385C103.378 8.86408 103.32 8.73914 103.224 8.64752C103.128 8.55591 103 8.50452 102.867 8.50385H100.575C100.298 8.50385 100.072 8.72334 100.057 8.99684H100.054V10.3176C98.6499 8.5883 96.4361 7.8705 94.2165 7.8705C89.1706 7.8705 85.0798 11.9609 85.0798 17.0068C85.0798 22.0527 89.1706 26.1434 94.2165 26.1434C96.4361 26.1434 98.8554 25.2822 100.054 23.6963V23.699H100.054ZM94.2252 22.9458C91.0159 22.9458 88.4147 20.2869 88.4147 17.0068C88.4147 13.727 91.0159 11.0681 94.2252 11.0681C97.4338 11.0681 100.035 13.727 100.035 17.0068C100.035 20.2869 97.4338 22.9454 94.2252 22.9454V22.9458ZM123.92 24.2574L123.919 15.8481C123.919 11.1076 120.928 7.9093 116.159 7.9093C113.883 7.9093 112.02 9.22584 111.361 10.3567V10.3408L111.357 10.3537C111.356 9.20948 110.428 8.54303 109.283 8.54303H108.548C108.261 8.54303 108.026 8.77811 108.026 9.06493V25.3176H108.029C108.044 25.5914 108.271 25.8109 108.548 25.8109H110.839C110.874 25.8109 110.909 25.8067 110.942 25.8007C110.957 25.7972 110.971 25.7911 110.986 25.787C111.004 25.782 111.021 25.7778 111.037 25.771C111.058 25.7626 111.076 25.7512 111.095 25.7406C111.104 25.7349 111.114 25.731 111.123 25.7253C111.146 25.7099 111.167 25.6929 111.187 25.6744C111.191 25.6709 111.195 25.6687 111.198 25.6656C111.294 25.5744 111.351 25.4498 111.358 25.3176H111.361V15.7176C111.361 13.1716 113.425 11.1073 115.971 11.1073C118.517 11.1073 120.582 13.1716 120.582 15.7176L120.583 23.7424L120.584 23.7393C120.584 23.7465 120.586 23.7541 120.586 23.7614V25.3176H120.589C120.604 25.5914 120.83 25.8109 121.107 25.8109H123.399C123.434 25.8109 123.468 25.8067 123.501 25.8007C123.515 25.7976 123.528 25.7919 123.541 25.7889C123.56 25.7832 123.579 25.7782 123.597 25.771C123.615 25.7634 123.633 25.7523 123.65 25.7425C123.661 25.7368 123.673 25.7322 123.683 25.7253C123.704 25.7109 123.723 25.6945 123.743 25.6778C123.747 25.674 123.753 25.6702 123.758 25.6652C123.779 25.6447 123.798 25.6219 123.816 25.5983C123.876 25.5171 123.911 25.42 123.917 25.3191L123.917 25.3176H123.92L123.92 24.2574ZM141.791 23.699C141.791 24.2426 142.722 25.7702 143.864 25.7702H144.604C144.89 25.7702 145.125 25.5355 145.125 25.2491V8.99684H145.123C145.115 8.86405 145.058 8.73911 144.961 8.6475C144.865 8.55589 144.737 8.50451 144.604 8.50385H142.313C142.18 8.50424 142.052 8.55552 141.955 8.64719C141.859 8.73885 141.801 8.86395 141.794 8.99684H141.791V10.3176C140.386 8.5883 138.173 7.8705 135.953 7.8705C130.908 7.8705 126.817 11.9609 126.817 17.0068C126.817 22.0527 130.908 26.1434 135.953 26.1434C138.173 26.1434 140.592 25.2822 141.79 23.6963L141.791 23.699ZM135.963 22.9458C132.753 22.9458 130.152 20.2869 130.152 17.0068C130.152 13.727 132.753 11.0681 135.963 11.0681C139.17 11.0681 141.772 13.727 141.772 17.0068C141.772 20.2869 139.17 22.9454 135.963 22.9454V22.9458Z" fill="#283343"/>
<path d="M28.8009 18.0146C24.3785 18.0146 20.794 21.599 20.794 26.0207C20.794 30.4428 24.3785 34.028 28.8009 34.028C33.2226 34.028 36.807 30.4428 36.807 26.0207C36.807 21.599 33.2226 18.0146 28.8009 18.0146ZM7.99917 18.015C3.57749 18.0154 -0.00732422 21.599 -0.00732422 26.0211C-0.00732422 30.4428 3.57749 34.0276 7.99917 34.0276C12.4212 34.0276 16.006 30.4428 16.006 26.0211C16.006 21.599 12.4216 18.015 7.99917 18.015ZM26.4063 8.00649C26.4063 12.4282 22.8219 16.0137 18.4002 16.0137C13.9778 16.0137 10.3934 12.4282 10.3934 8.00649C10.3934 3.58482 13.9778 0 18.4002 0C22.8219 0 26.406 3.58482 26.406 8.00649H26.4063Z" fill="#7E7E7E"/>
</svg>
