<svg width="102" height="35" viewBox="0 0 102 35" fill="none" xmlns="http://www.w3.org/2000/svg">
<g clip-path="url(#clip0_2_1546)">
<path d="M16.272 16.5352H20.6155V22.526C19.2603 22.9536 17.5491 23.1881 15.7703 23.1881C8.56132 23.1881 4.32434 17.1258 4.32434 11.2052C4.32434 5.39833 8.15677 1.32516 13.5035 1.32516C16.8868 1.32516 18.8555 2.45073 20.6167 4.01862V5.97318L23.9191 2.73015C21.8303 1.34236 18.8057 0.0234375 14.4825 0.0234375C4.99185 0.0234375 0.653809 6.69104 0.653809 12.1706C0.653809 19.9701 6.4388 24.6686 13.7086 24.6686C17.2335 24.6686 20.3633 24.1402 23.9786 23.1524V16.9629C23.9786 16.6464 24.1202 16.4293 24.3319 16.2386L25.4727 15.1183H17.7257L16.272 16.5352Z" fill="#252525"/>
<path d="M35.7292 8.3938C30.2665 8.3938 26.8818 12.3136 26.8818 16.4744C26.8818 20.0657 29.6086 24.3295 35.1332 24.3295C40.4476 24.3295 43.7082 20.402 43.7082 16.1685C43.7082 12.2249 40.5217 8.39525 35.7292 8.39525V8.3938ZM34.8229 9.53662C38.6743 9.53662 40.3894 14.4641 40.3894 17.9786C40.3894 23.2053 36.3966 23.3086 35.9192 23.3086C34.092 23.3086 32.815 22.2241 31.859 20.8018C31.0176 19.4909 30.195 17.0556 30.195 14.676C30.195 12.3056 30.9851 11.1482 32.2286 10.2967C33.2453 9.65845 34.1973 9.53662 34.8216 9.53662H34.8229Z" fill="#969696"/>
<path d="M71.4384 8.39258C66.6674 8.39258 64.0864 11.3589 64.0864 14.6708C64.0864 17.1921 65.9257 20.0365 69.7203 20.0365H70.6803C70.6803 20.0365 70.4189 20.6602 70.4175 21.2628C70.4175 22.1514 70.7425 22.6505 71.4328 23.4186C64.9034 23.8092 62.2793 26.3955 62.2793 29.175C62.2793 31.6091 64.6527 34.0046 69.6406 34.0046C75.5456 34.0046 78.604 30.7852 78.604 27.6258C78.604 25.3984 77.474 24.1775 74.6125 22.072C73.7711 21.4297 73.6079 21.0207 73.6079 20.54C73.6079 19.8514 74.0272 19.3957 74.181 19.2237C74.452 18.9429 74.9213 18.6225 75.0966 18.4689C76.0581 17.6691 77.416 16.4853 77.416 14.1228C77.416 12.5019 76.7295 11.1075 75.1654 9.80183H77.0748L78.5096 8.39287H71.4384V8.39258ZM70.1224 9.44666C70.9881 9.44666 71.7107 9.74729 72.474 10.371C73.3207 11.1205 74.6735 13.1346 74.6735 15.6268C74.6735 18.3163 72.5455 19.0526 71.3939 19.0526C70.8303 19.0526 70.1549 18.8977 69.583 18.5137C68.3127 17.7047 67.0517 15.5513 67.0517 12.989C67.0517 10.6769 68.4541 9.44666 70.1224 9.44666ZM72.0115 24.4396C72.3755 24.4396 72.6373 24.4688 72.6373 24.4688C72.6373 24.4688 73.4962 25.0713 74.0963 25.5215C75.4933 26.606 76.3643 27.435 76.3643 28.9116C76.3643 30.9417 74.4467 32.5334 71.3412 32.5334C67.9324 32.5334 65.327 30.9747 65.327 28.4297C65.327 26.3214 67.1124 24.507 72.0115 24.4396Z" fill="#252525"/>
<path d="M79.5427 23.8648H86.0922L87.09 22.885L85.2116 22.6546C84.7059 22.5937 84.4053 22.1646 84.4053 21.7488V2.32109C84.4053 1.93839 84.586 1.7424 84.718 1.61779L85.8994 0.457764H80.314L78.8604 1.88528H81.0314V22.0095C81.0314 22.2956 80.9397 22.4902 80.7428 22.6902L79.5427 23.8648Z" fill="#717171"/>
<path d="M94.9669 8.3938C91.3098 8.3938 87.4248 11.131 87.4248 16.0452C87.4248 20.1038 90.2121 24.3295 95.42 24.3295C96.7186 24.3295 97.7879 24.1655 98.7898 23.7139C99.8646 23.2279 100.899 22.4387 101.654 21.4468C100.229 22.1526 99.0662 22.6161 97.5221 22.6161C94.5878 22.6161 91.7587 20.5371 90.7689 16.7154L101.135 12.601C100.536 10.5047 98.8477 8.3938 94.9682 8.3938H94.9669ZM94.2898 9.51807C96.252 9.51807 97.6704 11.1032 97.6704 12.344C97.6704 12.7452 97.4143 12.9571 96.9072 13.1531L90.5356 15.6837C90.5356 15.6837 90.3632 14.8958 90.3632 14.0443C90.3632 10.4729 92.9927 9.51807 94.2898 9.51807Z" fill="#6B6B6B"/>
<path d="M54.2653 8.3938C48.8026 8.3938 45.418 12.3136 45.418 16.4744C45.418 20.0657 48.1447 24.3295 53.6693 24.3295C58.9837 24.3295 62.2443 20.402 62.2443 16.1685C62.2443 12.2249 59.0579 8.39525 54.2653 8.39525V8.3938ZM53.3591 9.53662C57.2105 9.53662 58.9256 14.4641 58.9256 17.9786C58.9256 23.2053 54.9327 23.3086 54.4554 23.3086C52.6282 23.3086 51.3512 22.2241 50.3952 20.8018C49.5538 19.4909 48.7312 17.0556 48.7312 14.676C48.7312 12.3056 49.5213 11.1482 50.7647 10.2967C51.7814 9.65845 52.7335 9.53662 53.3577 9.53662H53.3591Z" fill="#C3C3C3"/>
</g>
<defs>
<clipPath id="clip0_2_1546">
<rect width="101" height="34" fill="white" transform="translate(0.653809 0.013916)"/>
</clipPath>
</defs>
</svg>
