<svg width="147" height="20" viewBox="0 0 147 20" fill="none" xmlns="http://www.w3.org/2000/svg">
<path d="M18.7096 0.861572H0.653809V6.83865H6.63089V19.1664H12.7325V6.83865H18.7096V0.861572ZM24.6866 0.861572H36.7653V6.83865H24.6866V0.861572ZM24.6866 12.8716V6.83865H18.7096V19.1664H36.7653V12.8805L24.6866 12.8716Z" fill="#808080"/>
<path d="M47.3624 5.63193V16.7846H44.3883V5.63193H39.9272V3.4014H51.0799V5.63193H47.3624ZM59.4333 12.3235H53.2484C53.3465 13.8106 54.3908 14.4924 55.3759 14.4924C56.1247 14.4924 56.7544 14.3262 57.1488 13.8719L59.079 15.5415C58.2518 16.6047 56.7544 17.2434 55.3759 17.2434C52.4015 17.2434 50.5104 15.1496 50.5104 11.8797C50.5104 8.70821 52.4997 6.48883 55.1202 6.48883C57.8782 6.48883 59.4731 8.71528 59.4731 11.6704C59.4731 12.0663 59.4534 12.3235 59.4333 12.3235ZM54.9822 8.98443C53.9971 8.98443 53.3867 9.34949 53.2882 10.8365H56.834C56.7552 9.34949 56.2035 8.98443 54.9822 8.98443ZM65.9535 17.2724C63.2546 17.2724 61.108 15.066 61.108 11.8945C61.108 8.72308 63.1962 6.49701 66.0717 6.49701C68.0417 6.49701 69.3023 7.46246 70.1692 8.78256L68.377 10.5945C67.7662 9.72757 67.1164 9.11677 66.0134 9.11677C64.713 9.11677 63.8661 10.2001 63.8661 11.8938C63.8661 13.5492 64.713 14.6526 66.0134 14.6526C67.0766 14.6526 67.7465 14.1801 68.4562 13.3329L70.1893 14.9675C69.1841 16.3073 68.0019 17.2724 65.9535 17.2724ZM78.2181 16.7846V11.4611C78.2181 9.61009 77.8638 9.05841 76.7408 9.05841C75.6177 9.05841 75.2441 9.61047 75.2441 11.4031V16.7854H72.27V4.05606L75.2441 2.6958V7.40484C75.2441 6.91226 76.4355 6.49887 77.5188 6.49887C80.1587 6.49887 81.1922 8.3108 81.1922 11.2261V16.7854L78.2181 16.7846Z" fill="#080808"/>
<path d="M92.053 7.28513C91.5604 6.34013 90.7726 5.78807 89.5321 5.78807C87.4636 5.78807 86.2822 7.60075 86.2822 10.161C86.2822 12.6429 87.4837 14.534 89.5518 14.534C90.7938 14.534 91.5225 14.0024 92.2507 12.7812L94.5753 14.1596C93.6303 16.1099 91.9745 17.272 89.4737 17.272C85.8688 17.272 83.4453 14.5132 83.4453 10.1603C83.4453 5.96465 85.9662 3.04934 89.5711 3.04934C92.1719 3.04934 93.7478 4.30997 94.6136 6.10183L92.053 7.28513ZM102.178 9.88519C101.745 9.49076 101.306 9.21529 100.696 9.21529C99.6327 9.21529 99.0364 9.66958 99.0364 11.4607V16.7842H96.0623V6.37507H99.0364V7.40372C99.7799 6.91114 100.106 6.49775 101.071 6.49775C101.957 6.49775 102.579 6.85167 102.934 7.2264L102.178 9.88519ZM110.933 16.692V16.3664C110.189 16.8586 109.741 17.2724 108.658 17.2724C106.018 17.2724 104.984 15.4597 104.984 12.5451V6.37545H107.215V12.3079C107.215 14.1596 107.941 14.7113 109.065 14.7113C110.186 14.7113 110.933 14.1589 110.933 12.3663V6.37507H113.907V16.7842H110.816L110.933 16.692ZM121.714 16.7846V11.4611C121.714 9.61009 121.545 9.05841 120.422 9.05841C119.3 9.05841 119.111 9.61047 119.111 11.4031V16.7854H116.137V6.37619H119.111V7.40484C119.111 6.91226 120.117 6.49887 121.2 6.49887C123.84 6.49887 124.688 8.3108 124.688 11.2261V16.7854L121.714 16.7846ZM131.882 17.2724C129.183 17.2724 127.037 15.066 127.037 11.8945C127.037 8.72308 129.125 6.49701 132 6.49701C133.971 6.49701 135.231 7.46246 136.097 8.78256L134.306 10.5945C133.695 9.72757 133.046 9.11677 131.943 9.11677C130.642 9.11677 129.795 10.2001 129.795 11.8938C129.795 13.5492 130.642 14.6526 131.943 14.6526C133.005 14.6526 133.676 14.1801 134.386 13.3329L136.119 14.9675C135.112 16.3073 133.931 17.2724 131.882 17.2724ZM144.019 17.056V11.4611C144.019 9.61009 143.665 9.05841 142.541 9.05841C141.42 9.05841 141.045 9.61047 141.045 11.4031V16.7854H138.071V4.05606L141.045 2.6958V7.40484C141.045 6.91226 142.236 6.49887 143.32 6.49887C145.96 6.49887 146.993 8.3108 146.993 11.2261V16.7854H144.089L144.019 17.056Z" fill="#343C34"/>
</svg>
