<svg width="47" height="37" viewBox="0 0 47 37" fill="none" xmlns="http://www.w3.org/2000/svg">
<path d="M42.1335 16.4839C42.1361 16.1045 42.0344 15.8281 41.7657 15.5579C40.299 14.0816 38.8584 12.579 37.3917 11.1027C35.4451 9.14407 33.4872 7.19687 31.5162 5.26375C31.3406 5.09121 31.0372 4.96533 30.792 4.96445C26.7553 4.94596 22.7186 4.94508 18.6819 4.96621C18.4124 4.96797 18.0786 5.11234 17.8856 5.30424C16.2632 6.91341 14.6696 8.55163 13.0586 10.1723C12.8317 10.4002 12.8299 10.5578 13.0586 10.7876C15.5512 13.2929 18.0386 15.8035 20.5225 18.3176C21.7901 19.6002 23.0586 20.8828 24.307 22.1856C24.6035 22.4946 24.7783 22.4831 25.0721 22.1812C27.0753 20.1301 29.0958 18.0966 31.1119 16.0579C31.5145 15.6512 31.5067 15.6494 31.0963 15.2374C30.2434 14.3827 29.4157 13.5024 28.5454 12.667C28.3489 12.4786 28.0247 12.3474 27.7534 12.3351C27.0534 12.3026 26.3518 12.3114 25.5965 12.3167C25.3414 12.3185 25.1775 12.6351 25.3573 12.8184C26.1641 13.6371 26.9631 14.4637 27.7943 15.2568C28.1081 15.5561 28.0855 15.7401 27.7908 16.0306C26.8683 16.9382 25.9598 17.8625 25.0695 18.8026C24.7809 19.1072 24.5931 19.057 24.3288 18.7877C21.9162 16.322 19.4948 13.8651 17.0761 11.4055C16.8518 11.1775 16.6258 10.9504 16.4006 10.7233C16.2224 10.5437 16.2267 10.3765 16.4084 10.1951C17.2831 9.32013 18.1464 8.43368 19.0332 7.57187C19.1619 7.44687 19.3957 7.37469 19.5809 7.37381C22.996 7.36236 26.4102 7.35884 29.8252 7.37909C30.0521 7.37997 30.3286 7.5261 30.4973 7.69335C32.0979 9.2814 33.6802 10.8888 35.2677 12.4901C36.1884 13.4188 37.1092 14.3457 38.029 15.2753C38.204 15.4511 38.1902 15.7428 38.0156 15.9191C34.2347 19.7364 30.4727 23.5352 26.7443 27.2989C25.6265 28.4274 23.8184 28.4295 22.698 27.3037C17.8354 22.4181 12.9364 17.4956 7.98203 12.5181C6.81656 11.3471 6.85747 9.42659 8.058 8.29256C10.7038 5.79332 13.309 3.24858 15.9685 0.762937C16.4958 0.270109 17.1836 -0.000779262 17.9012 1.68384e-06C20.5172 0.00284861 27.1726 0.00918314 31.5404 0.00533235C32.2714 0.00468784 32.9687 0.280702 33.4934 0.796081C36.4927 3.74207 43.7183 11.104 46.1723 13.6076C46.7072 14.1535 47.0027 14.8885 47 15.6574C46.9783 21.8033 46.936 27.9491 46.9249 34.095C46.922 35.6994 45.6377 37 44.0532 37H2.86907C1.28453 37 0 35.6994 0 34.095V19.2335C0 17.8676 1.0936 16.7603 2.44262 16.7603C3.79163 16.7603 4.88523 17.8676 4.88523 19.2335V29.8961C4.88523 31.5004 6.16976 32.801 7.75429 32.801H39.1479C40.7325 32.801 42.0168 31.5006 42.0239 29.8963C42.0437 25.4731 42.1006 20.7134 42.1335 16.4839Z" fill="url(#paint0_linear_13_11828)"/>
<defs>
<linearGradient id="paint0_linear_13_11828" x1="47.004" y1="37" x2="11.5899" y2="2.0236" gradientUnits="userSpaceOnUse">
<stop stop-color="#7028E4"/>
<stop offset="0.75" stop-color="#E5B2CA"/>
<stop offset="1" stop-color="#FFD84E"/>
</linearGradient>
</defs>
</svg>
